<?xml version="1.0" encoding="utf-8"?>
<!-- Generator: Adobe Illustrator 22.0.1, SVG Export Plug-In . SVG Version: 6.00 Build 0)  -->
<svg version="1.1" id="Layer_1" xmlns="http://www.w3.org/2000/svg" xmlns:xlink="http://www.w3.org/1999/xlink" x="0px" y="0px"
	 viewBox="0 0 1505.3 340.4" style="enable-background:new 0 0 1505.3 340.4;" xml:space="preserve">
<style type="text/css">
	.st0{fill:#e9435a;}
	.st1{fill:#FFF;}
</style>
<path class="st1" d="M48.9,135v74.9H0V18.5h48.9"/>
<path class="st1" d="M352.9,144.3c0,9.5-1.9,18.5-5.6,27.1c-3.7,8.5-9.1,16.2-16.1,23c-7.1,6.8-15.1,11.9-24,15.4c-8.8,3.5-18.2,5.2-28.2,5.2
	c-10.1,0-19.6-1.7-28.4-5.2s-16.8-8.6-23.7-15.4c-7-6.6-12.3-14.2-15.9-22.8c-3.7-8.6-5.5-17.7-5.5-27.3c0-9.7,1.8-18.8,5.4-27.3
	s9-16.2,16-23c6.9-6.7,14.7-11.8,23.6-15.2c8.8-3.4,18.4-5.1,28.6-5.1s19.7,1.7,28.5,5.1c8.8,3.4,16.7,8.5,23.7,15.2
	c7.1,6.9,12.5,14.6,16.2,23.1C351,125.6,352.9,134.7,352.9,144.3z M306.6,144.3c0-9.8-2.5-17.6-7.4-23.3c-5-5.7-11.7-8.5-20.1-8.5
	c-8.5,0-15.3,2.8-20.2,8.5c-4.9,5.7-7.4,13.4-7.4,23.3c0,9.8,2.4,17.6,7.3,23.2c4.9,5.6,11.6,8.4,20.3,8.4c8.5,0,15.3-2.8,20.2-8.4
	C304.1,161.8,306.6,154.1,306.6,144.3z"/>
<path class="st1" d="M379.9,7.3h44.4v69c0,5.6-0.1,10.2-0.3,13.9c-0.2,3.7-0.5,6.9-1,9.6c5.4-9.4,11.6-16.1,18.6-20.1s16.1-6,27.4-6
	c17.6,0,31.9,6.5,42.8,19.4c10.9,12.9,16.4,29.9,16.4,50.9c0,21.7-5.5,39-16.5,51.8S485.9,215,467.5,215c-9.1,0-17.3-2.2-24.7-6.6
	c-7.4-4.4-14.1-11-20-19.9v21.4h-42.9V7.3z M421.2,144c0,10.3,2.7,18.4,8,24.3c5.4,5.9,12.7,8.9,22.2,8.9s16.9-2.9,22.4-8.8
	c5.4-5.9,8.1-14,8.1-24.4c0-10.3-2.7-18.4-8.2-24.3c-5.4-5.9-12.9-8.9-22.3-8.9s-16.8,3-22.2,8.9C423.9,125.6,421.2,133.7,421.2,144
	z"/>
<path class="st1" d="M696.4,144.3c0,9.5-1.9,18.5-5.6,27.1c-3.7,8.5-9.1,16.2-16.1,23c-7.1,6.8-15.1,11.9-24,15.4c-8.8,3.5-18.2,5.2-28.2,5.2
	c-10.1,0-19.6-1.7-28.4-5.2c-8.8-3.5-16.8-8.6-23.7-15.4c-7-6.6-12.3-14.2-15.9-22.8c-3.7-8.6-5.5-17.7-5.5-27.3
	c0-9.7,1.8-18.8,5.4-27.3c3.6-8.5,9-16.2,16-23c6.9-6.7,14.7-11.8,23.6-15.2c8.8-3.4,18.4-5.1,28.6-5.1c10.2,0,19.7,1.7,28.5,5.1
	s16.7,8.5,23.7,15.2c7.1,6.9,12.5,14.6,16.2,23.1C694.6,125.6,696.4,134.7,696.4,144.3z M650.1,144.3c0-9.8-2.5-17.6-7.4-23.3
	c-5-5.7-11.7-8.5-20.1-8.5c-8.5,0-15.3,2.8-20.2,8.5s-7.4,13.4-7.4,23.3c0,9.8,2.4,17.6,7.3,23.2c4.9,5.6,11.6,8.4,20.3,8.4
	c8.5,0,15.3-2.8,20.2-8.4C647.6,161.8,650.1,154.1,650.1,144.3z"/>
<path class="st1" d="M730.4,209.9v-99.1h-19.7V77.9h19.7V38.6h45.9v39.3H796v32.9h-19.7v99.1H730.4z"/>
<path class="st1" d="M959.2,77.9v132h-42.7v-21.4c-6.1,9.2-13,15.9-20.6,20.1c-7.6,4.3-16.6,6.4-26.9,6.4c-17.6,0-31.7-6.4-42.2-19.3
	C816.3,182.8,811,165.6,811,144c0-21.5,5.5-38.6,16.5-51.3c11-12.7,25.9-19,44.5-19c9.9,0,18.5,2.1,25.7,6.3
	c7.2,4.2,13.4,10.7,18.5,19.5V77.8h43V77.9z M918.3,143.7c0-10.3-2.7-18.4-8.2-24.4s-13-9-22.5-9s-17,3-22.4,9s-8.2,14.1-8.2,24.5
	c0,10.3,2.7,18.4,8.2,24.3c5.5,5.9,12.9,8.9,22.4,8.9s17-3,22.5-8.9C915.6,162.1,918.3,154,918.3,143.7z"/>
<path class="st1" d="M995.7,209.9V7.3h46.7v202.6H995.7z"/>
<path class="st1" d="M1078.2,209.9V7.3h45.7v128.2l48-57.6h57.8l-59.3,63.5l64.7,68.5h-61.3l-49.8-58.7v58.7L1078.2,209.9L1078.2,209.9z"/>
<path class="st1" d="M1376.9,153.2h-100.4c0.1,10.2,2.7,18.1,7.8,23.6c5.1,5.5,12.4,8.3,21.8,8.3c7.1,0,13-1.3,17.8-4s8.5-6.6,11-11.8l35,14.1
	c-4.2,10.1-11.6,17.9-22.2,23.4s-23.7,8.2-39.1,8.2c-23,0-41.5-6.4-55.4-19.1c-13.9-12.8-20.8-29.6-20.8-50.5
	c0-20.6,6.9-37.6,20.8-51.2s31.5-20.4,52.7-20.4c21.9,0,39.1,6.9,51.8,20.7c12.6,13.8,19,32.6,19,56.6v2.1H1376.9z M1331,126.9
	c-0.9-7.5-3.7-13.5-8.6-18c-4.8-4.5-10.8-6.8-17.8-6.8c-7.6,0-13.6,2.1-18.1,6.2s-7.5,10.3-9,18.6H1331z"/>
<path class="st1" d="M1403.8,209.9v-132h43.9V109c4.5-11.3,10.7-19.8,18.6-25.5c7.8-5.7,17.3-8.5,28.5-8.5c1.8,0,3.7,0.1,5.6,0.2
	s3.8,0.3,5.7,0.6l-4.4,42.4c-2.8-1-5.5-1.7-8.2-2.1s-5.3-0.7-7.8-0.7c-11.3,0-20.1,3.5-26.2,10.4c-6.1,6.9-9.2,16.8-9.2,29.5v54.6
	H1403.8z"/>
<path class="st0" d="M249.9,231.9c-13.3,8-21.7,20-26.8,34.6c-36.8-23.5-79-76.3-100.8-123.1c34.9-3,62.3-33.9,62.3-71.5
	c0-39.7-30.4-71.8-67.8-71.8C88.4,0.1,64,18.6,54,44.9c-3.3,7.3-4.9,16-4.9,25.6c0,0.5,0,0.9,0,1.4c0,2.6,0.1,5.2,0.4,7.7
	C58,180.7,210.4,369.6,281.9,338c18.6-8.3,38.5-31.1,41.6-52.4C325.1,274.1,263,224,249.9,231.9z"/>
</svg>
